<svg xmlns="http://www.w3.org/2000/svg" viewBox="0 0 512 512" width="512" height="512">
  <!-- Background black -->
  <rect width="512" height="512" fill="#000000"/>
  
  <!-- Stylized "EK" emblem centered - very angular and geometric -->
  <g transform="translate(256, 200)">
    <!-- Scale up the emblem for the larger icon size -->
    <g transform="scale(2.5)">
      <!-- E letter - sharp geometric lines, angular design -->
      <path d="M -42 -20 L -42 20 L -30 20 L -30 8 L -18 8 L -18 2 L -30 2 L -30 -2 L -18 -2 L -18 -8 L -30 -8 L -30 -20 Z" fill="#FFFFFF" stroke="#FFFFFF" stroke-width="0.5"/>
      <!-- K letter - sharing right bar with E, very angular diagonal strokes -->
      <path d="M -18 -20 L -18 20 L -6 20 L -6 2 L 2 -14 L 14 -20 L 10 -14 L 2 2 L 10 14 L 14 8 L 2 2 L 10 20 L -6 20 L -6 2 Z" fill="#FFFFFF" stroke="#FFFFFF" stroke-width="0.5"/>
    </g>
  </g>
  
  <!-- "EKKO" text below emblem - bold uppercase sans-serif, clean and modern -->
  <text x="256" y="340" font-family="'Arial', 'Helvetica Neue', Helvetica, sans-serif" font-size="64" font-weight="700" fill="#FFFFFF" text-anchor="middle" letter-spacing="8">EKKO</text>
</svg>

